<?xml version="1.0" encoding="UTF-8"?>
<svg width="45px" height="45px" viewBox="0 0 45 45" version="1.1" xmlns="http://www.w3.org/2000/svg" xmlns:xlink="http://www.w3.org/1999/xlink">
    <g id="Severity-Icon/Informational-Dark" stroke="none" stroke-width="1" fill="none" fill-rule="evenodd">
        <rect id="Clear-Box" x="0" y="0" width="45" height="45"></rect>
        <g id="Group-18" transform="translate(4.000000, 4.000000)">
            <circle id="Oval-Copy-4" fill="#8DBD3E" fill-rule="nonzero" cx="18.5" cy="18.5" r="18.5"></circle>
            <path d="M18.5,34.5333333 C27.3549655,34.5333333 34.5333333,27.3549655 34.5333333,18.5 C34.5333333,9.64503451 27.3549655,2.46666667 18.5,2.46666667 C9.64503451,2.46666667 2.46666667,9.64503451 2.46666667,18.5 C2.46666667,27.3549655 9.64503451,34.5333333 18.5,34.5333333 Z M18.5,37 C8.28273213,37 0,28.7172679 0,18.5 C0,8.28273213 8.28273213,0 18.5,0 C28.7172679,0 37,8.28273213 37,18.5 C37,28.7172679 28.7172679,37 18.5,37 Z" id="Oval-Copy-4" fill="#FFFFFF" fill-rule="nonzero"></path>
            <path d="M18.4999982,28.7451602 L17.285591,27.6338268 L9.86666667,20.8599847 L12.2954812,18.4150409 L16.7335877,22.4687722 L16.7335877,12.9763406 L20.2664123,12.9763406 L20.2664123,22.4687722 L24.7045188,18.4150409 L27.1333333,20.8599847 L19.714409,27.6338268 L18.4999982,28.7451602 Z M16.7335877,10.6098561 L16.7335877,7.4 L20.2664123,7.4 L20.2664123,10.6098561 L16.7335877,10.6098561 Z" id="Combined-Shape" fill="#000000"></path>
        </g>
    </g>
</svg>