<?xml version="1.0" encoding="UTF-8"?>
<svg width="45px" height="45px" viewBox="0 0 45 45" version="1.1" xmlns="http://www.w3.org/2000/svg" xmlns:xlink="http://www.w3.org/1999/xlink">
    <g id="Severity-Icon/High-Dark" stroke="none" stroke-width="1" fill="none" fill-rule="evenodd">
        <rect id="Clear-Box" x="0" y="0" width="45" height="45"></rect>
        <g id="Group-18" transform="translate(4.000000, 4.000000)">
            <circle id="Oval-Copy-4" fill="#E61F25" fill-rule="nonzero" cx="18.5" cy="18.5" r="18.5"></circle>
            <path d="M18.5,34.5333333 C27.3549655,34.5333333 34.5333333,27.3549655 34.5333333,18.5 C34.5333333,9.64503451 27.3549655,2.46666667 18.5,2.46666667 C9.64503451,2.46666667 2.46666667,9.64503451 2.46666667,18.5 C2.46666667,27.3549655 9.64503451,34.5333333 18.5,34.5333333 Z M18.5,37 C8.28273213,37 0,28.7172679 0,18.5 C0,8.28273213 8.28273213,0 18.5,0 C28.7172679,0 37,8.28273213 37,18.5 C37,28.7172679 28.7172679,37 18.5,37 Z" id="Oval-Copy-4" fill="#FFFFFF" fill-rule="nonzero"></path>
            <polygon id="Path-Copy-3" fill="#FFFFFF" transform="translate(18.500000, 18.500000) rotate(-180.000000) translate(-18.500000, -18.500000) " points="18.4999982 26.3111111 17.285591 25.2101093 9.86666667 18.4992413 12.2954812 16.0770274 16.7335877 20.0930725 16.7335877 10.6888889 20.2664123 10.6888889 20.2664123 20.0930725 24.7045188 16.0770274 27.1333333 18.4992413 19.714409 25.2101093"></polygon>
        </g>
    </g>
</svg>