<?xml version="1.0" encoding="UTF-8"?>
<svg width="45px" height="45px" viewBox="0 0 45 45" version="1.1" xmlns="http://www.w3.org/2000/svg" xmlns:xlink="http://www.w3.org/1999/xlink">
    <g id="Severity-Icon/Low-Dark" stroke="none" stroke-width="1" fill="none" fill-rule="evenodd">
        <rect id="Clear-Box" x="0" y="0" width="45" height="45"></rect>
        <g id="Group-18" transform="translate(4.000000, 4.000000)">
            <circle id="Oval-Copy-4" fill="#FFCC33" fill-rule="nonzero" cx="18.5" cy="18.5" r="18.5"></circle>
            <path d="M18.633719,20.7993649 L24.7310063,14.9279676 L24.8697459,14.9279792 L27.3360425,17.3037036 L27.3360285,17.4477586 L18.7028247,25.7606737 L18.7025646,25.7609242 L18.5638441,25.7609252 L9.93064033,17.448509 L9.93063925,17.3044373 L12.397972,14.9287129 L12.5366935,14.9287129 L18.633719,20.7993649 Z" id="Path-Copy" stroke="#000000" stroke-width="0.2" fill="#000000"></path>
            <path d="M18.5,34.5333333 C27.3549655,34.5333333 34.5333333,27.3549655 34.5333333,18.5 C34.5333333,9.64503451 27.3549655,2.46666667 18.5,2.46666667 C9.64503451,2.46666667 2.46666667,9.64503451 2.46666667,18.5 C2.46666667,27.3549655 9.64503451,34.5333333 18.5,34.5333333 Z M18.5,37 C8.28273213,37 0,28.7172679 0,18.5 C0,8.28273213 8.28273213,0 18.5,0 C28.7172679,0 37,8.28273213 37,18.5 C37,28.7172679 28.7172679,37 18.5,37 Z" id="Oval-Copy-4" fill="#FFFFFF" fill-rule="nonzero"></path>
        </g>
    </g>
</svg>