<svg width="25" height="25" xmlns="http://www.w3.org/2000/svg">
 <g>
  <title>Layer 1</title>
  <g fill-rule="evenodd" fill="none" id="Activity-Bar:-Icon-&amp;-Badge">
   <g fill-rule="nonzero" fill="#ffffff" id="Artboard">
    <path id="Combined-Shape-Copy" d="m2,0l21,0c1.10457,0 2,0.89543 2,2l0,21c0,1.10457 -0.89543,2 -2,2l-21,0c-1.10457,0 -2,-0.89543 -2,-2l0,-21c0,-1.10457 0.89543,-2 2,-2zm17.03631,19.7567l3.01946,0l0,-2.835c0,-0.90322 0,-7.63232 0,-8.53447l0,-2.83446l-5.27514,0l0,2.83446l2.25568,0l0,11.36947zm-9.12865,-2.58697c-3.04541,0 -4.41459,-2.6416 -4.41459,-4.5166c0,-1.87554 1.36918,-4.51607 4.41459,-4.51607c3.21243,0 4.41405,2.80446 4.41405,4.57178c0,1.85197 -1.37135,4.46089 -4.41405,4.46089zm0,-11.86446c-4.09892,0 -7.43568,3.29679 -7.43568,7.34786c0,4.05321 3.33676,7.34946 7.43568,7.34946c4.09622,0 7.43405,-3.28018 7.43405,-7.31518c0,-4.13732 -3.26702,-7.38214 -7.43405,-7.38214z"/>
    <path fill="black" d="M8.18 22.51L8.52 22.51Q8.54 23.10 9.03 23.10L9.03 23.10Q9.21 23.10 9.32 23.02L9.32 23.02Q9.49 22.89 9.49 22.66L9.49 22.66Q9.49 22.41 9.28 22.23L9.28 22.23Q9.14 22.10 8.80 21.90L8.80 21.90Q8.26 21.59 8.26 21.14L8.26 21.14Q8.26 20.87 8.44 20.67L8.44 20.67Q8.65 20.44 9.00 20.44L9.00 20.44Q9.67 20.44 9.76 21.23L9.76 21.23L9.43 21.23Q9.41 21.05 9.35 20.94L9.35 20.94Q9.23 20.72 9.00 20.72L9.00 20.72Q8.77 20.72 8.66 20.88L8.66 20.88Q8.58 20.99 8.58 21.12L8.58 21.12Q8.58 21.44 9.10 21.74L9.10 21.74Q9.41 21.92 9.58 22.09L9.58 22.09Q9.81 22.31 9.81 22.66L9.81 22.66Q9.81 22.98 9.61 
23.18L9.61 23.18Q9.39 23.40 9.04 23.40L9.04 23.40Q8.61 23.40 8.36 23.08L8.36 23.08Q8.20 22.85 8.18 22.51L8.18 22.51ZM13.47 22.38L13.81 22.38Q13.72 23.39 13.02 23.39L13.02 23.39Q12.60 23.39 12.38 22.97L12.38 22.97Q12.18 22.59 12.18 21.92L12.18 21.92Q12.18 21.23 12.40 20.83L12.40 20.83Q12.62 20.44 13.02 20.44L13.02 20.44Q13.66 20.44 13.78 21.32L13.78 21.32L13.46 21.32Q13.37 20.74 13.02 20.74L13.02 20.74Q12.53 20.74 12.53 
21.92L12.53 21.92Q12.53 23.09 13.02 23.09L13.02 23.09Q13.44 23.09 13.47 22.38L13.47 22.38ZM16.08 23.32L16.80 20.52L17.20 20.52L17.92 23.32L17.57 23.32L17.36 22.40L16.64 22.40L16.43 23.32L16.08 23.32ZM17.29 22.12L17 20.80L16.71 22.12L17.29 22.12Z"/>
	
   </g>
  </g>
 </g>
</svg>