<svg width="64" height="64" viewBox="0 0 64 64" fill="none" xmlns="http://www.w3.org/2000/svg">
<g clip-path="url(#clip0)">
<rect width="64" height="64" fill="white"/>
<rect x="0.5" y="0.5" width="63" height="63" rx="5.5" stroke="black"/>
<path d="M23.0879 57.5635C21.9622 57.2399 21.1419 56.8434 20.627 56.374C20.1165 55.9001 19.8613 55.3167 19.8613 54.624C19.8613 53.8402 20.1735 53.193 20.7979 52.6826C21.4268 52.1676 22.2425 51.9102 23.2451 51.9102C23.9287 51.9102 24.5371 52.0423 25.0703 52.3066C25.6081 52.571 26.0228 52.9355 26.3145 53.4004C26.6107 53.8652 26.7588 54.3734 26.7588 54.9248H25.4395C25.4395 54.3232 25.248 53.8516 24.8652 53.5098C24.4824 53.1634 23.9424 52.9902 23.2451 52.9902C22.598 52.9902 22.0921 53.1338 21.7275 53.4209C21.3675 53.7035 21.1875 54.0977 21.1875 54.6035C21.1875 55.0091 21.3584 55.3532 21.7002 55.6357C22.0465 55.9137 22.6322 56.1689 23.457 56.4014C24.2865 56.6338 24.9336 56.8913 25.3984 57.1738C25.8678 57.4518 26.2142 57.7777 26.4375 58.1514C26.6654 58.5251 26.7793 58.9648 26.7793 59.4707C26.7793 60.2773 26.4648 60.9245 25.8359 61.4121C25.207 61.8952 24.3662 62.1367 23.3135 62.1367C22.6299 62.1367 21.9919 62.0068 21.3994 61.7471C20.807 61.4827 20.349 61.1227 20.0254 60.667C19.7064 60.2113 19.5469 59.694 19.5469 59.1152H20.8662C20.8662 59.7168 21.0872 60.193 21.5293 60.5439C21.9759 60.8903 22.5706 61.0635 23.3135 61.0635C24.0062 61.0635 24.5371 60.9222 24.9062 60.6396C25.2754 60.3571 25.46 59.972 25.46 59.4844C25.46 58.9967 25.2891 58.6208 24.9473 58.3564C24.6055 58.0876 23.9857 57.8232 23.0879 57.5635ZM35.7891 58.8418C35.666 59.8945 35.2764 60.708 34.6201 61.2822C33.9684 61.8519 33.1003 62.1367 32.0156 62.1367C30.8398 62.1367 29.8965 61.7152 29.1855 60.8721C28.4792 60.029 28.126 58.901 28.126 57.4883V56.5312C28.126 55.6061 28.29 54.7926 28.6182 54.0908C28.9508 53.389 29.4202 52.8512 30.0264 52.4775C30.6325 52.0993 31.3343 51.9102 32.1318 51.9102C33.1891 51.9102 34.0368 52.2064 34.6748 52.7988C35.3128 53.3867 35.6842 54.2025 35.7891 55.2461H34.4697C34.3558 54.4531 34.1074 53.8789 33.7246 53.5234C33.3464 53.168 32.8154 52.9902 32.1318 52.9902C31.2933 52.9902 30.6348 53.3001 30.1562 53.9199C29.6823 54.5397 29.4453 55.4215 29.4453 56.5654V57.5293C29.4453 58.6094 29.6709 59.4684 30.1221 60.1064C30.5732 60.7445 31.2044 61.0635 32.0156 61.0635C32.7448 61.0635 33.3031 60.8994 33.6904 60.5713C34.0824 60.2386 34.3421 59.6621 34.4697 58.8418H35.7891ZM43.083 59.4023H38.9131L37.9766 62H36.623L40.4238 52.0469H41.5723L45.3799 62H44.0332L43.083 59.4023ZM39.3096 58.3223H42.6934L40.998 53.667L39.3096 58.3223Z" fill="black"/>
<circle cx="26" cy="31" r="16.5" stroke="black" stroke-width="7"/>
<rect x="51" y="11" width="7" height="40" fill="black"/>
<rect x="46" y="11" width="5" height="6" fill="black"/>
</g>
<defs>
<clipPath id="clip0">
<rect width="64" height="64" fill="white"/>
</clipPath>
</defs>
</svg>
